<?xml version="1.0" encoding="utf-8"?>
<!-- Generator: Adobe Illustrator 24.0.3, SVG Export Plug-In . SVG Version: 6.00 Build 0)  -->
<svg version="1.1" id="Capa_1" xmlns="http://www.w3.org/2000/svg" xmlns:xlink="http://www.w3.org/1999/xlink" x="0px" y="0px"
	 viewBox="0 0 181.52 48.02" style="enable-background:new 0 0 181.52 48.02;" xml:space="preserve">
<style type="text/css">
	.st0{fill:#292C64;}
	.st1{fill:#36A9E1;}
</style>
<g>
	<g>
		<path class="st0" d="M25.2,13.43v25.2h-7.83V27.48H7.83v11.16H0v-25.2h7.83v7.22h9.55v-7.22H25.2z"/>
		<path class="st0" d="M39.61,39.03c-1.9,0-3.57-0.3-5-0.9c-1.43-0.6-2.64-1.4-3.61-2.41c-0.98-1-1.71-2.17-2.21-3.49
			c-0.5-1.32-0.74-2.71-0.74-4.15s0.25-2.83,0.74-4.15c0.5-1.32,1.23-2.49,2.21-3.49c0.98-1,2.18-1.81,3.61-2.41
			c1.43-0.6,3.1-0.9,5-0.9c1.87,0,3.53,0.3,4.98,0.9c1.44,0.6,2.65,1.4,3.63,2.41c0.98,1,1.71,2.17,2.21,3.49
			c0.5,1.32,0.74,2.71,0.74,4.15s-0.25,2.83-0.74,4.15c-0.5,1.32-1.23,2.49-2.21,3.49c-0.98,1-2.19,1.81-3.63,2.41
			C43.14,38.73,41.48,39.03,39.61,39.03z M35.88,28.08c0,1.42,0.35,2.53,1.04,3.33c0.7,0.8,1.59,1.2,2.69,1.2
			c1.1,0,1.99-0.4,2.69-1.2c0.7-0.8,1.04-1.91,1.04-3.33c0-1.42-0.35-2.53-1.04-3.33c-0.7-0.8-1.59-1.2-2.69-1.2
			c-1.1,0-1.99,0.4-2.69,1.2C36.23,25.55,35.88,26.66,35.88,28.08z"/>
		<path class="st0" d="M87.89,38.63h-7.62V26.75c0-1.04-0.21-1.8-0.62-2.27c-0.42-0.47-0.92-0.7-1.5-0.7
			c-0.62,0-1.26,0.28-1.95,0.84c-0.68,0.56-1.18,1.28-1.5,2.17v11.84h-7.63V26.75c0-1.04-0.21-1.8-0.62-2.27
			c-0.42-0.47-0.92-0.7-1.5-0.7c-0.62,0-1.26,0.28-1.95,0.84s-1.18,1.28-1.5,2.17v11.84h-7.63V17.52h6.86v3.13
			c0.75-1.15,1.78-2.03,3.09-2.63c1.31-0.6,2.86-0.9,4.66-0.9c0.86,0,1.61,0.1,2.25,0.3c0.64,0.2,1.2,0.48,1.67,0.82
			c0.47,0.35,0.84,0.74,1.12,1.16c0.28,0.43,0.5,0.88,0.66,1.36c0.75-1.15,1.77-2.05,3.07-2.69c1.3-0.64,2.78-0.96,4.43-0.96
			c1.39,0,2.49,0.26,3.31,0.78c0.82,0.52,1.44,1.17,1.87,1.95c0.43,0.78,0.71,1.61,0.84,2.49c0.13,0.88,0.2,1.69,0.2,2.41V38.63z"/>
		<path class="st0" d="M101.98,39.03c-1.85,0-3.49-0.29-4.94-0.86c-1.44-0.57-2.66-1.36-3.63-2.35c-0.98-0.99-1.72-2.13-2.23-3.41
			c-0.51-1.28-0.76-2.64-0.76-4.05c0-1.52,0.25-2.97,0.74-4.33c0.49-1.36,1.23-2.56,2.21-3.57c0.98-1.02,2.18-1.83,3.61-2.43
			c1.43-0.6,3.1-0.9,5-0.9c1.87,0,3.53,0.3,4.98,0.9c1.44,0.6,2.66,1.4,3.63,2.41c0.98,1,1.71,2.17,2.21,3.49
			c0.49,1.32,0.74,2.71,0.74,4.15c0,0.4-0.02,0.81-0.06,1.22c-0.04,0.42-0.09,0.78-0.14,1.1H98.52c0.08,1.12,0.5,1.93,1.24,2.43
			c0.75,0.5,1.57,0.74,2.45,0.74c0.83,0,1.61-0.19,2.35-0.56c0.74-0.37,1.22-0.9,1.47-1.57l6.46,1.85
			c-0.86,1.69-2.17,3.06-3.95,4.13C106.76,38.5,104.57,39.03,101.98,39.03z M105.35,25.83c-0.13-1.02-0.51-1.82-1.12-2.41
			c-0.62-0.59-1.4-0.88-2.37-0.88s-1.75,0.29-2.37,0.88c-0.62,0.59-0.99,1.39-1.12,2.41H105.35z"/>
		<path class="st0" d="M124.73,39.03c-1.85,0-3.65-0.3-5.42-0.9c-1.77-0.6-3.27-1.48-4.5-2.63l2.61-4.57
			c1.31,0.88,2.58,1.57,3.79,2.05s2.33,0.72,3.35,0.72c1.07,0,1.61-0.33,1.61-1c0-0.37-0.21-0.7-0.62-0.96
			c-0.42-0.27-1.22-0.57-2.43-0.92c-1.5-0.43-2.75-0.85-3.75-1.26s-1.82-0.86-2.45-1.34c-0.63-0.48-1.08-1.02-1.35-1.61
			c-0.27-0.59-0.4-1.28-0.4-2.09c0-1.07,0.21-2.06,0.64-2.97c0.43-0.91,1.02-1.7,1.79-2.37c0.76-0.67,1.67-1.18,2.73-1.54
			c1.06-0.36,2.21-0.54,3.47-0.54c1.55,0,3.03,0.2,4.43,0.6c1.41,0.4,2.82,1.22,4.23,2.45l-2.89,4.58
			c-1.31-0.86-2.41-1.46-3.29-1.83c-0.88-0.36-1.71-0.54-2.49-0.54c-0.45,0-0.83,0.09-1.12,0.26c-0.29,0.17-0.44,0.45-0.44,0.82
			c0,0.4,0.21,0.73,0.64,0.98c0.43,0.25,1.27,0.54,2.53,0.86c1.52,0.4,2.81,0.82,3.85,1.26c1.04,0.44,1.88,0.92,2.51,1.44
			c0.63,0.52,1.08,1.11,1.34,1.77s0.4,1.41,0.4,2.27c0,1.1-0.2,2.07-0.6,2.93c-0.4,0.86-0.98,1.59-1.75,2.21
			c-0.76,0.62-1.69,1.08-2.77,1.4C127.32,38.87,126.1,39.03,124.73,39.03z"/>
		<path class="st0" d="M149.57,39.03c-3.18,0-5.46-1.23-6.82-3.69v3.29h-6.62V9.34h7.63v11.32c0.61-1.15,1.48-2.03,2.61-2.63
			c1.12-0.6,2.45-0.9,3.97-0.9c1.29,0,2.48,0.28,3.59,0.84c1.11,0.56,2.07,1.33,2.87,2.31c0.8,0.98,1.43,2.14,1.89,3.49
			c0.45,1.35,0.68,2.82,0.68,4.39c0,1.58-0.25,3.03-0.74,4.35c-0.49,1.32-1.18,2.47-2.05,3.43s-1.91,1.72-3.11,2.27
			C152.26,38.76,150.96,39.03,149.57,39.03z M147.37,32.61c1.26,0,2.27-0.4,3.03-1.2c0.76-0.8,1.14-1.87,1.14-3.21
			c0-0.64-0.1-1.24-0.3-1.81c-0.2-0.56-0.47-1.06-0.8-1.49c-0.33-0.43-0.74-0.76-1.2-1c-0.47-0.24-0.98-0.36-1.55-0.36
			c-0.8,0-1.57,0.29-2.29,0.86c-0.72,0.58-1.27,1.33-1.64,2.27v3.77C144.74,31.89,145.95,32.61,147.37,32.61z"/>
		<path class="st0" d="M161.17,40.76c1.23,0.45,2.27,0.68,3.13,0.68c1.63,0,2.53-0.94,2.69-2.81l-7.67-21.11h7.83l4.01,14.65
			l3.25-14.65h7.1l-7.14,23.64c-0.32,1.04-0.78,1.99-1.36,2.83c-0.59,0.84-1.29,1.57-2.11,2.17c-0.82,0.6-1.72,1.06-2.71,1.38
			c-0.99,0.32-2.02,0.48-3.09,0.48c-1.36,0-2.68-0.25-3.93-0.76V40.76z"/>
	</g>
	<polygon class="st1" points="12.65,0 0.15,11.02 25.15,11.02 	"/>
</g>
</svg>
