<svg xmlns="http://www.w3.org/2000/svg" width="181.5167" height="48.0237" viewBox="0 0 181.5167 48.0237"><defs><style>.a{fill:#292c64;}.b{fill:#36a9e1;}</style></defs><title>logo</title><path class="a" d="M25.2027,13.4336V38.6325H17.3771V27.4758H7.8256V38.6325H0V13.4336H7.8256v7.2195h9.5515V13.4336Z"/><path class="a" d="M39.6107,39.0337a12.7929,12.7929,0,0,1-4.9965-.9032,10.797,10.797,0,0,1-3.6116-2.4081,9.9247,9.9247,0,0,1-2.2076-3.4915,11.9922,11.9922,0,0,1,0-8.3067,9.9247,9.9247,0,0,1,2.2076-3.4915,10.8045,10.8045,0,0,1,3.6116-2.4081,12.8038,12.8038,0,0,1,4.9965-.9032,12.8462,12.8462,0,0,1,4.9766.9032,10.7714,10.7714,0,0,1,3.632,2.4081,9.9374,9.9374,0,0,1,2.207,3.4915,11.9831,11.9831,0,0,1,0,8.3067,9.9374,9.9374,0,0,1-2.207,3.4915,10.764,10.764,0,0,1-3.632,2.4081A12.8351,12.8351,0,0,1,39.6107,39.0337ZM35.8784,28.0776a4.9155,4.9155,0,0,0,1.0437,3.3306,3.6033,3.6033,0,0,0,5.3777,0,4.921,4.921,0,0,0,1.0432-3.3306A4.9231,4.9231,0,0,0,42.3,24.7469a3.6045,3.6045,0,0,0-5.3777,0A4.9176,4.9176,0,0,0,35.8784,28.0776Z"/><path class="a" d="M87.89,38.6325H80.265V26.7539a3.3838,3.3838,0,0,0-.6216-2.2681,1.9427,1.9427,0,0,0-1.5049-.7021,3.1278,3.1278,0,0,0-1.9469.8426,4.9284,4.9284,0,0,0-1.5049,2.1673V38.6325h-7.625V26.7539a3.3809,3.3809,0,0,0-.6222-2.2681,1.9419,1.9419,0,0,0-1.5049-.7021,3.1266,3.1266,0,0,0-1.9464.8426,4.9292,4.9292,0,0,0-1.5049,2.1673V38.6325h-7.625V17.5231h6.8623v3.13a7.1607,7.1607,0,0,1,3.09-2.6285,11.067,11.067,0,0,1,4.6553-.9032,7.5549,7.5549,0,0,1,2.2472.3009,5.57,5.57,0,0,1,1.6659.8227,4.6361,4.6361,0,0,1,1.1236,1.1638,5.8737,5.8737,0,0,1,.6624,1.365,7.5974,7.5974,0,0,1,3.07-2.6892,9.87,9.87,0,0,1,4.4344-.9632,6.1021,6.1021,0,0,1,3.3113.7825,5.4148,5.4148,0,0,1,1.8664,1.9469,7.4641,7.4641,0,0,1,.8431,2.488,16.3529,16.3529,0,0,1,.199,2.4081Z"/><path class="a" d="M101.9757,39.0337a13.2681,13.2681,0,0,1-4.9364-.8624,10.4424,10.4424,0,0,1-3.632-2.3481,10.0766,10.0766,0,0,1-2.2269-3.411,10.9117,10.9117,0,0,1-.7626-4.0536,12.5979,12.5979,0,0,1,.7423-4.3341,10.017,10.017,0,0,1,2.2075-3.572,10.6545,10.6545,0,0,1,3.6116-2.4279,14.2155,14.2155,0,0,1,9.9726,0,10.7615,10.7615,0,0,1,3.632,2.4081,9.93,9.93,0,0,1,2.2075,3.4915,11.7753,11.7753,0,0,1,.7423,4.1534c0,.4022-.0193.81-.06,1.2239s-.0868.783-.1405,1.1037H98.5239a2.9685,2.9685,0,0,0,1.2443,2.4285,4.3467,4.3467,0,0,0,2.4488.7423,5.0935,5.0935,0,0,0,2.347-.5621,2.8238,2.8238,0,0,0,1.4653-1.565l6.4617,1.8461a10.1925,10.1925,0,0,1-3.9538,4.134A12.5286,12.5286,0,0,1,101.9757,39.0337ZM105.3471,25.83a3.9206,3.9206,0,0,0-1.1242-2.4081,3.6171,3.6171,0,0,0-4.7358,0,3.9137,3.9137,0,0,0-1.123,2.4081Z"/><path class="a" d="M124.7311,39.0337a16.657,16.657,0,0,1-5.418-.9032,12.2891,12.2891,0,0,1-4.4955-2.628l2.6087-4.5749a20.0746,20.0746,0,0,0,3.7929,2.0467,9.1818,9.1818,0,0,0,3.351.7219q1.6043,0,1.6058-1.003a1.1485,1.1485,0,0,0-.6221-.9632,10.5112,10.5112,0,0,0-2.4286-.9236,35.2881,35.2881,0,0,1-3.7521-1.2636,10.8514,10.8514,0,0,1-2.4478-1.344A4.27,4.27,0,0,1,115.58,26.593a5.0125,5.0125,0,0,1-.4012-2.0869,6.8921,6.8921,0,0,1,.6425-2.97,7.188,7.188,0,0,1,1.786-2.3679,8.0145,8.0145,0,0,1,2.7288-1.5446,10.659,10.659,0,0,1,3.4712-.5422,16.07,16.07,0,0,1,4.4343.6023,11.3029,11.3029,0,0,1,4.2349,2.4478l-2.89,4.5754a20.7892,20.7892,0,0,0-3.291-1.8262,6.5986,6.5986,0,0,0-2.4885-.5417,2.1808,2.1808,0,0,0-1.1231.2607.8859.8859,0,0,0-.442.8227,1.124,1.124,0,0,0,.6426.9836,11.0227,11.0227,0,0,0,2.5282.8625,28.9913,28.9913,0,0,1,3.852,1.2646,10.0608,10.0608,0,0,1,2.5089,1.4449,4.5126,4.5126,0,0,1,1.3441,1.7656,5.9762,5.9762,0,0,1,.4011,2.2676,6.8255,6.8255,0,0,1-.6017,2.9294,6.1948,6.1948,0,0,1-1.7453,2.2076,7.94,7.94,0,0,1-2.77,1.4041A12.93,12.93,0,0,1,124.7311,39.0337Z"/><path class="a" d="M149.5729,39.0337q-4.7772,0-6.8232-3.6921v3.2909h-6.6216V9.336h7.6256V20.6531a6.2564,6.2564,0,0,1,2.6076-2.6285,8.2954,8.2954,0,0,1,3.9732-.9032,7.839,7.839,0,0,1,3.5923.8431,8.8547,8.8547,0,0,1,2.8694,2.3073,10.9677,10.9677,0,0,1,1.8868,3.4915,13.73,13.73,0,0,1,.6822,4.3947,12.3247,12.3247,0,0,1-.7434,4.3539,10.5736,10.5736,0,0,1-2.0466,3.4315,9.3478,9.3478,0,0,1-7.0023,3.09Zm-2.2076-6.4209a3.9838,3.9838,0,0,0,3.03-1.2046,4.47,4.47,0,0,0,1.1435-3.2094,5.3334,5.3334,0,0,0-.3015-1.8064,5.2574,5.2574,0,0,0-.8023-1.4851,3.6186,3.6186,0,0,0-1.2035-1.0035,3.3316,3.3316,0,0,0-1.5457-.3609,3.62,3.62,0,0,0-2.288.8629,5.3917,5.3917,0,0,0-1.6444,2.2676V30.446A4.31,4.31,0,0,0,147.3653,32.6128Z"/><path class="a" d="M161.1694,40.76a9.3408,9.3408,0,0,0,3.1311.6822q2.4472,0,2.6881-2.8093l-7.6652-21.1094H167.15l4.0128,14.6477,3.2512-14.6477h7.1032l-7.1439,23.6377a10.07,10.07,0,0,1-1.3644,2.83,9.2758,9.2758,0,0,1-2.1067,2.1668,9.4446,9.4446,0,0,1-2.7085,1.3848,9.97,9.97,0,0,1-3.09.4816,10.3958,10.3958,0,0,1-3.9334-.7627Z"/><polygon class="b" points="12.649 0 0.149 11.017 25.15 11.017 12.649 0"/></svg>